# xmcd
#
# Track frame offsets:
#	150
#	14169
#	29156
#	43872
#	58221
#	71760
#	86985
#	103531
#	117704
#	131940
#	148047
#	162962
#	178794
#	192463
#	206449
#	220036
#	234340
#	247203
#	260461
#	273981
#	288429
#	302699
#	316626
#	331622
#	345704
#
# Disc length: 4791 seconds
#
# Revision: 0
# Processed by: cddbd v1.5.1PL0 Copyright (c) Steve Scherf et al.
# Submitted via: audiograbber 1.83.01
#
DISCID=9112b519
DTITLE=Various Artist - Atlanta Blues - CD 3
DYEAR=2005
DGENRE=Blues
TTITLE0=Peg Leg Howell - Coal Man Blues
TTITLE1=Peg Leg Howell - Tishamingo Blues
TTITLE2=Peg Leg Howell - New Prison Blues
TTITLE3=Peg Leg Howell - Fo' Day Blues
TTITLE4=Peg Leg Howell - New Jelly Roll Blues
TTITLE5=Peg Leg Howell - Beaver Slide Rag
TTITLE6=Peg Leg Howell - Papa Stobb Blues
TTITLE7=Peg Leg Howell - Sadie Lee Blues
TTITLE8=Peg Leg Howell - Too Tight Blues
TTITLE9=Peg Leg Howell - Moanin' and Groanin' Blues
TTITLE10=Peg Leg Howell - Hobo Blues
TTITLE11=Peg Leg Howell - Peg Leg Stomp
TTITLE12=Peg Leg Howell - Doin' Wrong
TTITLE13=Peg Leg Howell - Skin Game Blues
TTITLE14=Peg Leg Howell - Please, Ma'am
TTITLE15=Peg Leg Howell - Rock and Gravel Blues
TTITLE16=Peg Leg Howell - Low-Down Rounder Blues
TTITLE17=Peg Leg Howell - Fairy Blues
TTITLE18=Peg Leg Howell - Banjo Blues
TTITLE19=Peg Leg Howell - Turkey Buzzard Blues
TTITLE20=Peg Leg Howell - Turtle Dove Blues
TTITLE21=Peg Leg Howell - Walkin' Blues
TTITLE22=Peg Leg Howell - Broke and Hungry Blues
TTITLE23=Peg Leg Howell - Rolling Mill Blues
TTITLE24=Peg Leg Howell - Ball and Chain Blues
EXTD=JSP7754C
EXTT0=
EXTT1=
EXTT2=
EXTT3=
EXTT4=
EXTT5=
EXTT6=
EXTT7=
EXTT8=
EXTT9=
EXTT10=
EXTT11=
EXTT12=
EXTT13=
EXTT14=
EXTT15=
EXTT16=
EXTT17=
EXTT18=
EXTT19=
EXTT20=
EXTT21=
EXTT22=
EXTT23=
EXTT24=
PLAYORDER=
